<?xml version="1.0" encoding="UTF-8"?>
<!DOCTYPE svg PUBLIC "-//W3C//DTD SVG 1.1//EN" "http://www.w3.org/Graphics/SVG/1.1/DTD/svg11.dtd">
<!-- Creator: CorelDRAW X7 -->
<svg xmlns="http://www.w3.org/2000/svg" xml:space="preserve" width="224px" height="79px" version="1.1" style="shape-rendering:geometricPrecision; text-rendering:geometricPrecision; image-rendering:optimizeQuality; fill-rule:evenodd; clip-rule:evenodd"
viewBox="0 0 224 79"
 xmlns:xlink="http://www.w3.org/1999/xlink">
 <defs>
  <style type="text/css">
   <![CDATA[
    .fil1 {fill:none}
    .fil0 {fill:url(#id0);fill-rule:nonzero}
   ]]>
  </style>
  <linearGradient id="id0" gradientUnits="objectBoundingBox" x1="17.0043%" y1="109.228%" x2="82.9957%" y2="0%">
   <stop offset="0" style="stop-opacity:1; stop-color:#3E4095"/>
   <stop offset="0.301961" style="stop-opacity:1; stop-color:#8D458C"/>
   <stop offset="1" style="stop-opacity:1; stop-color:#DC4A82"/>
  </linearGradient>
 </defs>
 <g id="Layer_x0020_1">
  <metadata id="CorelCorpID_0Corel-Layer"/>
  <polygon class="fil0" points="37,12 37,25 28,12 23,12 23,32 28,32 28,20 37,32 42,32 42,12 "/>
  <path id="1" class="fil0" d="M45 32l5 0 0 -16 -5 0 0 16zm3 -18c1,0 3,-1 3,-2 0,-2 -2,-3 -3,-3 -2,0 -3,1 -3,3 0,1 1,2 3,2z"/>
  <path id="2" class="fil0" d="M52 24c0,5 4,9 9,9 4,0 7,-3 8,-7l-6 0c0,2 -1,2 -2,2 -2,0 -4,-1 -4,-4 0,-3 2,-4 4,-4 1,0 2,1 2,2l6 0c-1,-4 -4,-6 -8,-6 -5,0 -9,3 -9,8z"/>
  <path id="3" class="fil0" d="M78 20c2,0 3,1 3,3l-6 0c0,-2 1,-3 3,-3zm8 7l-5 0c-1,1 -2,2 -3,2 -2,0 -3,-1 -3,-4l11 0c0,0 0,-1 0,-1 0,-5 -3,-8 -8,-8 -5,0 -8,3 -8,8 0,5 3,9 8,9 4,0 7,-3 8,-6z"/>
  <path id="4" class="fil0" d="M96 27c0,4 2,5 5,5l3 0 0 -4 -2 0c-1,0 -1,0 -1,-1l0 -7 3 0 0 -4 -3 0 0 -4 -5 0 0 4 -2 0 0 4 2 0 0 7z"/>
  <path id="5" class="fil0" d="M122 24c0,-5 -3,-8 -8,-8 -5,0 -9,3 -9,8 0,5 4,9 9,9 5,0 8,-4 8,-9zm-12 0c0,-3 2,-4 4,-4 2,0 3,1 3,4 0,3 -1,4 -3,4 -2,0 -4,-1 -4,-4z"/>
  <path id="6" class="fil0" d="M131 32l5 0 0 -9c0,-2 1,-3 3,-3 2,0 3,1 3,3l0 9 5 0 0 -9c0,-5 -2,-7 -6,-7 -2,0 -4,1 -5,2l0 -7 -5 0 0 21z"/>
  <path id="7" class="fil0" d="M149 24c0,5 4,9 8,9 2,0 4,-1 5,-3l0 2 5 0 0 -16 -5 0 0 2c-1,-1 -3,-2 -5,-2 -4,0 -8,3 -8,8zm13 0c0,3 -2,4 -4,4 -2,0 -4,-1 -4,-4 0,-2 2,-4 4,-4 2,0 4,2 4,4z"/>
  <polygon id="8" class="fil0" points="168,16 174,32 180,32 186,16 181,16 177,28 174,16 "/>
  <path id="9" class="fil0" d="M195 20c2,0 3,1 3,3l-6 0c0,-2 2,-3 3,-3zm8 7l-5 0c-1,1 -1,2 -3,2 -2,0 -3,-1 -3,-4l11 0c0,0 1,-1 1,-1 0,-5 -4,-8 -9,-8 -5,0 -8,3 -8,8 0,5 3,9 8,9 4,0 7,-3 8,-6z"/>
  <polygon id="10" class="fil0" points="25,56 21,45 16,45 22,61 19,70 24,70 34,45 29,45 "/>
  <path id="11" class="fil0" d="M52 54c0,-6 -4,-9 -9,-9 -4,0 -8,3 -8,9 0,5 4,8 8,8 5,0 9,-3 9,-8zm-12 0c0,-3 2,-4 3,-4 2,0 4,1 4,4 0,2 -2,4 -4,4 -1,0 -3,-2 -3,-4z"/>
  <path id="12" class="fil0" d="M70 45l-5 0 0 9c0,3 -1,4 -3,4 -2,0 -3,-1 -3,-4l0 -9 -5 0 0 10c0,4 3,7 6,7 3,0 4,-1 5,-2l0 2 5 0 0 -17z"/>
  <path id="13" class="fil0" d="M100 51c0,-6 -4,-10 -10,-10 -6,0 -11,4 -11,10 0,7 5,11 11,11 6,0 10,-4 10,-11zm-16 0c0,-3 2,-6 6,-6 3,0 5,3 5,6 0,4 -2,7 -5,7 -4,0 -6,-3 -6,-7z"/>
  <path id="14" class="fil0" d="M114 62l5 0 0 -10c0,-4 -2,-7 -6,-7 -3,0 -4,1 -5,3l0 -3 -5 0 0 17 5 0 0 -9c0,-2 1,-4 3,-4 2,0 3,2 3,4l0 9z"/>
  <path id="15" class="fil0" d="M127 48l0 -8 -5 0 0 22 5 0 0 -2c1,1 3,2 5,2 4,0 8,-3 8,-8 0,-6 -4,-9 -8,-9 -2,0 -4,1 -5,3zm7 6c0,2 -1,4 -3,4 -2,0 -4,-2 -4,-4 0,-3 2,-4 4,-4 2,0 3,1 3,4z"/>
  <path id="16" class="fil0" d="M158 54c0,-6 -4,-9 -9,-9 -5,0 -8,3 -8,9 0,5 3,8 8,8 5,0 9,-3 9,-8zm-12 0c0,-3 1,-4 3,-4 2,0 4,1 4,4 0,2 -2,4 -4,4 -2,0 -3,-2 -3,-4z"/>
  <path id="17" class="fil0" d="M159 54c0,5 3,8 7,8 3,0 4,-1 5,-2l0 2 5 0 0 -17 -5 0 0 3c0,-2 -2,-3 -5,-3 -4,0 -7,3 -7,9zm12 0c0,2 -1,4 -3,4 -2,0 -4,-2 -4,-4 0,-3 2,-4 4,-4 2,0 3,1 3,4z"/>
  <path id="18" class="fil0" d="M185 54c0,-3 1,-3 3,-3l2 0 0 -6c-2,0 -4,1 -5,3l0 -3 -5 0 0 17 5 0 0 -8z"/>
  <path id="19" class="fil0" d="M191 54c0,5 3,8 7,8 3,0 4,-1 5,-2l0 2 5 0 0 -22 -5 0 0 8c-1,-2 -3,-3 -5,-3 -4,0 -7,3 -7,9zm12 0c0,2 -2,4 -3,4 -2,0 -4,-2 -4,-4 0,-3 2,-4 4,-4 1,0 3,1 3,4z"/>
  <rect class="fil1" width="223.999" height="78.5141"/>
 </g>
</svg>
