<?xml version="1.0" encoding="UTF-8"?>
<!DOCTYPE svg PUBLIC "-//W3C//DTD SVG 1.1//EN" "http://www.w3.org/Graphics/SVG/1.1/DTD/svg11.dtd">
<!-- Creator: CorelDRAW X7 -->
<svg xmlns="http://www.w3.org/2000/svg" xml:space="preserve" width="262px" height="57px" version="1.1" style="shape-rendering:geometricPrecision; text-rendering:geometricPrecision; image-rendering:optimizeQuality; fill-rule:evenodd; clip-rule:evenodd"
viewBox="0 0 313 68"
 xmlns:xlink="http://www.w3.org/1999/xlink">
 <defs>
  <style type="text/css">
   <![CDATA[
    .fil0 {fill:none}
    .fil1 {fill:#FEFEFE;fill-rule:nonzero}
   ]]>
  </style>
 </defs>
 <g id="Layer_x0020_1">
  <metadata id="CorelCorpID_0Corel-Layer"/>
  <rect class="fil0" width="312.814" height="68.3222"/>
  <path class="fil1" d="M44 44c0,-12 -17,-9 -17,-16 0,-2 1,-3 4,-3 2,0 3,2 4,4l9 0c0,-7 -6,-11 -13,-11 -8,0 -13,4 -13,11 0,12 17,9 17,15 0,2 -1,4 -4,4 -2,0 -4,-2 -4,-4l-9 0c0,7 6,11 14,11 8,0 12,-5 12,-11z"/>
  <path id="1" class="fil1" d="M47 40c0,9 6,15 14,15 7,0 12,-4 14,-11l-9 0c-1,2 -2,3 -5,3 -3,0 -5,-2 -5,-7 0,-5 2,-7 5,-7 3,0 4,1 5,3l9 0c-2,-7 -7,-10 -14,-10 -8,0 -14,5 -14,14z"/>
  <path id="2" class="fil1" d="M79 54l8 0 0 -15c0,-4 3,-6 6,-6 3,0 5,2 5,6l0 15 9 0 0 -16c0,-8 -4,-12 -11,-12 -4,0 -7,1 -9,4l0 -13 -8 0 0 37z"/>
  <path id="3" class="fil1" d="M140 40c0,-9 -7,-14 -15,-14 -8,0 -15,5 -15,14 0,9 7,15 15,15 8,0 15,-6 15,-15zm-21 0c0,-5 3,-7 6,-7 3,0 6,2 6,7 0,5 -3,7 -6,7 -3,0 -6,-2 -6,-7z"/>
  <path id="4" class="fil1" d="M171 40c0,-9 -6,-14 -15,-14 -8,0 -14,5 -14,14 0,9 6,15 14,15 9,0 15,-6 15,-15zm-20 0c0,-5 2,-7 5,-7 3,0 6,2 6,7 0,5 -3,7 -6,7 -3,0 -5,-2 -5,-7z"/>
  <polygon id="5" class="fil1" points="175,54 184,54 184,17 175,17 "/>
  <path id="6" class="fil1" d="M198 35l0 -9 4 0c4,0 5,1 5,4 0,3 -1,5 -5,5l-4 0zm18 -5c0,-6 -4,-11 -13,-11l-14 0 0 35 9 0 0 -13 5 0c9,0 13,-5 13,-11z"/>
  <path id="7" class="fil1" d="M220 54l8 0 0 -28 -8 0 0 28zm4 -31c3,0 5,-2 5,-5 0,-2 -2,-4 -5,-4 -3,0 -5,2 -5,4 0,3 2,5 5,5z"/>
  <polygon id="8" class="fil1" points="234,54 243,54 243,17 234,17 "/>
  <path id="9" class="fil1" d="M276 40c0,-9 -7,-14 -15,-14 -8,0 -15,5 -15,14 0,9 7,15 15,15 8,0 15,-6 15,-15zm-21 0c0,-5 3,-7 6,-7 3,0 6,2 6,7 0,5 -3,7 -6,7 -3,0 -6,-2 -6,-7z"/>
  <path id="10" class="fil1" d="M281 44c0,8 4,10 10,10l4 0 0 -7 -3 0c-2,0 -3,-1 -3,-2l0 -12 6 0 0 -7 -6 0 0 -7 -8 0 0 7 -4 0 0 7 4 0 0 11z"/>
 </g>
</svg>
